<?xml version="1.0" standalone="no"?>
<!DOCTYPE svg PUBLIC "-//W3C//DTD SVG 20010904//EN"
 "http://www.w3.org/TR/2001/REC-SVG-20010904/DTD/svg10.dtd">
<svg version="1.0" xmlns="http://www.w3.org/2000/svg"
 width="512.000000pt" height="512.000000pt" viewBox="0 0 512.000000 512.000000"
 preserveAspectRatio="xMidYMid meet">
<metadata>
Created by potrace 1.14, written by Peter Selinger 2001-2017
</metadata>
<g transform="translate(0.000000,512.000000) scale(0.100000,-0.100000)"
fill="#000000" stroke="none">
<path d="M0 2560 l0 -2560 2560 0 2560 0 0 2560 0 2560 -2560 0 -2560 0 0
-2560z m2695 1369 c69 -32 129 -97 155 -167 32 -83 25 -196 -15 -271 -61 -110
-163 -165 -300 -159 -129 5 -222 64 -276 174 -20 41 -24 64 -24 139 0 78 4 97
27 140 36 68 93 121 164 151 78 33 192 30 269 -7z m-1098 10 c122 -46 158
-219 66 -317 l-34 -36 40 -114 c23 -63 41 -118 41 -123 0 -5 -38 -9 -84 -9
l-84 0 -36 115 -37 115 -69 0 -70 0 0 -115 0 -115 -80 0 -80 0 0 305 0 305
199 0 c117 0 211 -4 228 -11z m2251 -10 c86 -42 128 -159 83 -234 l-21 -36 21
-28 c43 -59 45 -153 5 -214 -12 -18 -41 -42 -66 -54 -42 -22 -57 -23 -247 -23
l-203 0 0 305 0 305 192 0 c175 0 196 -2 236 -21z m-2518 -1184 l0 -115 115 0
115 0 0 115 0 115 80 0 80 0 0 -305 0 -305 -80 0 -80 0 0 115 0 115 -115 0
-115 0 0 -115 0 -115 -80 0 -80 0 0 305 0 305 80 0 80 0 0 -115z m1310 -190
l0 -305 -80 0 -80 0 0 305 0 305 80 0 80 0 0 -305z m790 288 c6 -10 48 -84 93
-165 l83 -147 90 162 89 162 83 3 82 3 0 -306 0 -305 -80 0 -80 0 0 158 0 157
-61 -112 -60 -113 -64 0 -64 0 -60 113 -61 112 0 -157 0 -158 -80 0 -80 0 0
305 0 305 80 0 c65 0 82 -3 90 -17z m-1878 -1074 c29 -6 65 -18 81 -25 l27
-15 -31 -62 c-17 -34 -32 -63 -33 -64 -1 -1 -31 7 -66 18 -109 35 -219 13
-172 -33 9 -9 55 -31 102 -48 166 -61 210 -103 210 -201 0 -129 -100 -197
-274 -187 -81 5 -188 36 -214 62 -12 11 -9 23 17 75 17 33 35 61 39 61 5 0 28
-10 53 -22 59 -30 179 -38 199 -13 23 28 0 47 -111 92 -116 47 -144 65 -176
113 -56 82 -3 207 103 245 48 17 174 19 246 4z m978 -234 l0 -235 130 0 130 0
0 -70 0 -70 -210 0 -210 0 0 305 0 305 80 0 80 0 0 -235z m1420 160 l0 -75
-175 0 -175 0 0 -45 0 -45 100 0 100 0 0 -75 0 -75 -100 0 -100 0 0 -110 0
-110 -80 0 -80 0 0 305 0 305 255 0 255 0 0 -75z"/>
<path d="M2506 3800 c-47 -15 -93 -67 -106 -119 -19 -82 19 -158 95 -186 78
-30 162 3 195 78 25 54 25 91 -1 143 -32 68 -114 105 -183 84z"/>
<path d="M1330 3755 l0 -45 104 0 c110 0 136 9 136 49 0 34 -21 41 -132 41
l-108 0 0 -45z"/>
<path d="M3580 3760 l0 -40 98 0 c53 0 103 4 110 9 8 5 12 21 10 37 l-3 29
-107 3 -108 3 0 -41z"/>
<path d="M3580 3535 l0 -45 108 0 c111 0 132 7 132 41 0 40 -26 49 -136 49
l-104 0 0 -45z"/>
</g>
</svg>
